HIERARCHY
ROOT hip_center
{
  OFFSET -0.003768 0.000459 0.000372
  CHANNELS 3 Xposition Yposition Zposition
  JOINT right_hip
  {
    OFFSET -0.006308 0.011686 -0.105556
    CHANNELS 3 Xposition Yposition Zposition
    JOINT right_knee
    {
      OFFSET 0.043082 0.358045 0.079572
      CHANNELS 3 Xposition Yposition Zposition
      JOINT right_ankle
      {
        OFFSET -0.030716 0.337469 0.057412
        CHANNELS 3 Xposition Yposition Zposition
        End Site
        {
          OFFSET -0.015358 0.168734 0.028706
        }
      }
    }
  }
  JOINT left_hip
  {
    OFFSET 0.006308 -0.011686 0.105558
    CHANNELS 3 Xposition Yposition Zposition
    JOINT left_knee
    {
      OFFSET 0.047599 0.324547 0.086700
      CHANNELS 3 Xposition Yposition Zposition
      JOINT left_ankle
      {
        OFFSET -0.025842 0.324247 0.013109
        CHANNELS 3 Xposition Yposition Zposition
        End Site
        {
          OFFSET -0.012921 0.162123 0.006555
        }
      }
    }
  }
  JOINT spine
  {
    OFFSET 0.079131 -0.199884 -0.022399
    CHANNELS 3 Xposition Yposition Zposition
    JOINT thorax
    {
      OFFSET 0.079131 -0.199883 -0.022399
      CHANNELS 3 Xposition Yposition Zposition
      JOINT neck
      {
        OFFSET 0.073719 -0.021988 -0.002208
        CHANNELS 3 Xposition Yposition Zposition
        JOINT head
        {
          OFFSET 0.073454 -0.022974 -0.002321
          CHANNELS 3 Xposition Yposition Zposition
          End Site
          {
            OFFSET 0.036727 -0.011487 -0.001160
          }
        }
      }
      JOINT left_shoulder
      {
        OFFSET -0.007671 0.011528 0.118870
        CHANNELS 3 Xposition Yposition Zposition
        JOINT left_elbow
        {
          OFFSET -0.010763 0.214630 0.079801
          CHANNELS 3 Xposition Yposition Zposition
          JOINT left_wrist
          {
            OFFSET 0.083916 0.182705 0.011188
            CHANNELS 3 Xposition Yposition Zposition
            End Site
            {
              OFFSET 0.041958 0.091353 0.005594
            }
          }
        }
      }
      JOINT right_shoulder
      {
        OFFSET 0.006701 -0.009040 -0.119141
        CHANNELS 3 Xposition Yposition Zposition
        JOINT right_elbow
        {
          OFFSET -0.001142 0.212919 -0.045474
          CHANNELS 3 Xposition Yposition Zposition
          JOINT right_wrist
          {
            OFFSET 0.067560 0.190072 -0.001129
            CHANNELS 3 Xposition Yposition Zposition
            End Site
            {
              OFFSET 0.033780 0.095036 -0.000565
            }
          }
        }
      }
    }
  }
}
MOTION
Frames: 12
Frame Time: 0.033358
0.000182 0.000508 0.001881 -0.047901 -0.003818 -0.092922 0.024078 0.355192 -0.044808 -0.001087 0.692616 0.015495 0.048343 0.004825 0.096648 0.128307 0.332860 0.129993 0.021446 0.639952 0.145836 0.091491 -0.192847 -0.029639 0.182879 -0.386165 -0.061155 0.247213 -0.418101 -0.088796 0.312473 -0.447290 -0.117393 0.248107 -0.354588 0.034081 0.216319 -0.183012 0.182747 0.183229 -0.373924 0.127920 0.123737 -0.426533 -0.157039 0.087946 -0.298162 -0.329211 0.209654 -0.363007 -0.476437
0.000391 0.000551 0.001939 -0.049889 -0.005269 -0.091637 0.021964 0.353998 -0.045289 -0.001325 0.691275 0.016571 0.050766 0.006365 0.095467 0.131277 0.334390 0.127569 0.021686 0.640516 0.143448 0.091953 -0.192881 -0.028355 0.183588 -0.386282 -0.058613 0.246529 -0.420219 -0.087067 0.310748 -0.450687 -0.116668 0.252364 -0.354085 0.033881 0.194801 -0.208191 0.201068 0.155531 -0.396380 0.141143 0.122296 -0.430024 -0.151624 0.059809 -0.330352 -0.334830 0.174516 -0.417289 -0.476170
0.000653 0.000604 0.001975 -0.051760 -0.006670 -0.090321 0.020002 0.352844 -0.045774 -0.001773 0.689915 0.017734 0.053183 0.007875 0.094206 0.133457 0.336046 0.125398 0.021588 0.641340 0.141409 0.092295 -0.192995 -0.026983 0.183999 -0.386575 -0.055863 0.245382 -0.422752 -0.084951 0.308291 -0.455057 -0.115405 0.256251 -0.353735 0.033708 0.170658 -0.247024 0.217655 0.126620 -0.431850 0.150960 0.120192 -0.433119 -0.145771 0.030818 -0.366383 -0.332752 0.127713 -0.474828 -0.472551
0.000928 0.000662 0.001999 -0.053425 -0.007971 -0.089049 0.018321 0.351766 -0.046318 -0.002370 0.688599 0.018795 0.055417 0.009296 0.092967 0.134993 0.337705 0.123427 0.021287 0.642311 0.139612 0.092459 -0.193177 -0.025673 0.184037 -0.387010 -0.053220 0.244045 -0.425161 -0.082655 0.305707 -0.459239 -0.113722 0.259565 -0.353589 0.033384 0.150168 -0.297183 0.226777 0.099442 -0.477972 0.154040 0.117551 -0.435754 -0.139966 0.007227 -0.399876 -0.324207 0.076896 -0.530701 -0.461043
0.001193 0.000719 0.002021 -0.054805 -0.009131 -0.087899 0.017055 0.350789 -0.046944 -0.003053 0.687365 0.019668 0.057340 0.010574 0.091850 0.136051 0.339255 0.121623 0.020872 0.643297 0.137977 0.092441 -0.193424 -0.024429 0.183719 -0.387574 -0.050711 0.242691 -0.427240 -0.080234 0.303389 -0.462738 -0.111610 0.262201 -0.353720 0.033052 0.137879 -0.350701 0.225627 0.075507 -0.526552 0.149901 0.114588 -0.437918 -0.134423 -0.010055 -0.427699 -0.312645 0.031166 -0.578488 -0.440146
0.001439 0.000764 0.002039 -0.055836 -0.010134 -0.086952 0.016364 0.349908 -0.047693 -0.003806 0.686215 0.020241 0.058866 0.011668 0.090932 0.136729 0.340617 0.119971 0.020350 0.644195 0.136455 0.092255 -0.193739 -0.023216 0.183087 -0.388262 -0.048262 0.241435 -0.428938 -0.077652 0.301574 -0.465378 -0.109020 0.264047 -0.354186 0.033016 0.133631 -0.398361 0.216293 0.055137 -0.568436 0.142391 0.111609 -0.439667 -0.129315 -0.022565 -0.449419 -0.300503 -0.002009 -0.614805 -0.414160
0.001648 0.000786 0.002044 -0.056477 -0.010966 -0.086284 0.016297 0.349126 -0.048572 -0.004624 0.685165 0.020454 0.059922 0.012543 0.090276 0.137097 0.341725 0.118484 0.019789 0.644944 0.135010 0.091967 -0.194098 -0.022039 0.182291 -0.389008 -0.045876 0.240413 -0.430284 -0.074874 0.300425 -0.467213 -0.105914 0.265071 -0.355018 0.033584 0.133912 -0.435390 0.203548 0.039226 -0.599478 0.135299 0.109160 -0.441082 -0.125005 -0.031336 -0.466306 -0.289407 -0.023209 -0.642066 -0.388075
0.001785 0.000774 0.002037 -0.056669 -0.011605 -0.085988 0.016845 0.348470 -0.049576 -0.005478 0.684264 0.020200 0.060372 0.013154 0.089975 0.137226 0.342497 0.117172 0.019270 0.645470 0.133588 0.091625 -0.194469 -0.020903 0.181463 -0.389744 -0.043567 0.239850 -0.431116 -0.071886 0.300274 -0.467916 -0.102274 0.265238 -0.356227 0.035047 0.135268 -0.462707 0.190996 0.028094 -0.621448 0.128841 0.107750 -0.442264 -0.121857 -0.036474 -0.480297 -0.280464 -0.036481 -0.663755 -0.364344
0.001817 0.000731 0.002013 -0.056374 -0.012029 -0.086132 0.017893 0.347980 -0.050601 -0.006308 0.683565 0.019552 0.060118 0.013488 0.090087 0.137300 0.342848 0.116124 0.018872 0.645656 0.132194 0.091311 -0.194792 -0.019865 0.180797 -0.390351 -0.041446 0.239988 -0.431168 -0.068889 0.301397 -0.467031 -0.098411 0.264624 -0.357719 0.037483 0.135779 -0.482298 0.180414 0.020598 -0.637034 0.122633 0.107822 -0.443252 -0.120169 -0.037914 -0.492264 -0.274320 -0.044435 -0.681117 -0.344927
0.001750 0.000671 0.001973 -0.055535 -0.012214 -0.086745 0.019397 0.347694 -0.051593 -0.007083 0.683114 0.018526 0.059121 0.013552 0.090638 0.137414 0.342745 0.115442 0.018624 0.645449 0.130778 0.091022 -0.195062 -0.018915 0.180279 -0.390833 -0.039497 0.240728 -0.430485 -0.065885 0.303588 -0.464684 -0.094307 0.263151 -0.359470 0.040941 0.134394 -0.495913 0.172680 0.014785 -0.648041 0.117011 0.109275 -0.443982 -0.119839 -0.036485 -0.501823 -0.270875 -0.048611 -0.694281 -0.330086
0.001636 0.000617 0.001922 -0.054102 -0.012133 -0.087796 0.021484 0.347626 -0.052519 -0.007785 0.682911 0.017134 0.057437 0.013363 0.091602 0.137611 0.342191 0.115212 0.018510 0.644831 0.129324 0.090718 -0.195302 -0.018006 0.179779 -0.391261 -0.037622 0.241739 -0.429436 -0.062650 0.306291 -0.461644 -0.089563 0.260770 -0.361454 0.045287 0.130578 -0.504636 0.168165 0.009165 -0.655414 0.112732 0.111658 -0.444405 -0.120425 -0.033402 -0.508728 -0.269500 -0.050215 -0.703387 -0.319684
0.001506 0.000576 0.001861 -0.052067 -0.011773 -0.089220 0.024318 0.347757 -0.053339 -0.008458 0.682911 0.015383 0.055138 0.012919 0.092911 0.137892 0.341179 0.115503 0.018519 0.643794 0.127763 0.090384 -0.195530 -0.017122 0.179237 -0.391677 -0.035789 0.242720 -0.428324 -0.059234 0.308941 -0.458542 -0.084340 0.257413 -0.363615 0.050367 0.124059 -0.509400 0.166615 0.003057 -0.660101 0.110082 0.114813 -0.444613 -0.121629 -0.029212 -0.514443 -0.269222 -0.050333 -0.710136 -0.313397
